<svg width="24" height="24" viewBox="0 0 24 24" fill="none" xmlns="http://www.w3.org/2000/svg">
<path fill-rule="evenodd" clip-rule="evenodd" d="M16 23.3179C20.6608 21.6706 24 17.2256 24 12.0008C24 6.7759 20.6608 2.33094 16 0.683594V23.3179V23.3179L16 23.3179V23.3179V23.3179Z" fill="#E94B35"/>
<path fill-rule="evenodd" clip-rule="evenodd" d="M16 23.3172C14.7489 23.7594 13.4025 24 12 24C10.5975 24 9.25112 23.7594 8 23.3172L8 0.682822C9.25112 0.240617 10.5975 0 12 0C13.4025 0 14.7489 0.240617 16 0.682823V23.3172V23.3172V23.3172V23.3172V23.3172Z" fill="white"/>
<path fill-rule="evenodd" clip-rule="evenodd" d="M8 0.683594C3.33923 2.33094 0 6.7759 0 12.0008C0 17.2256 3.33923 21.6706 8 23.3179V0.683594V0.683594V0.683594V0.683594V0.683594Z" fill="#1AAF5D"/>
</svg>
