<svg width="24" height="24" viewBox="0 0 24 24" fill="none" xmlns="http://www.w3.org/2000/svg">
<circle cx="12" cy="12" r="12" fill="#227FBB"/>
<path fill-rule="evenodd" clip-rule="evenodd" d="M4.96258 2.2793L12.0001 9.31682L19.0376 2.2793C20.0675 3.02618 20.974 3.93272 21.7209 4.96258L14.6834 12.0001L21.7209 19.0376C20.974 20.0675 20.0675 20.974 19.0376 21.7209L12.0001 14.6834L4.96258 21.7209C3.93271 20.974 3.02618 20.0675 2.2793 19.0376L9.31682 12.0001L2.2793 4.96258C3.02618 3.93272 3.93271 3.02618 4.96258 2.2793V2.2793Z" fill="white"/>
<path fill-rule="evenodd" clip-rule="evenodd" d="M21.4848 19.3511L15.3227 13.0658H13.2402L20.5133 20.4562C20.859 20.1082 21.1835 19.7391 21.4848 19.3511V19.3511ZM4.63068 21.4705L12.7999 13.1991H10.6666L3.49286 20.4625C3.8503 20.8218 4.23034 21.1586 4.63068 21.4705V21.4705ZM20.4993 3.52795L13.6666 10.4158H11.7333L19.4753 2.61133C19.834 2.89731 20.1759 3.20342 20.4993 3.52795V3.52795ZM2.52637 4.63266L7.87224 9.9991H9.96965L3.50933 3.51915C3.15941 3.86951 2.83104 4.2414 2.52637 4.63266V4.63266Z" fill="#E94B35"/>
<path fill-rule="evenodd" clip-rule="evenodd" d="M9.33333 0.297355V9.33333H0.297355C0.102749 10.191 0 11.0835 0 12C0 12.9165 0.102749 13.809 0.297355 14.6667H9.33333V23.7026C10.191 23.8973 11.0835 24 12 24C12.9165 24 13.809 23.8973 14.6667 23.7026V14.6667H23.7026C23.8973 13.809 24 12.9165 24 12C24 11.0835 23.8973 10.191 23.7026 9.33333H14.6667V0.297355C13.809 0.102749 12.9165 0 12 0C11.0835 0 10.191 0.102749 9.33333 0.297355V0.297355Z" fill="white"/>
<path fill-rule="evenodd" clip-rule="evenodd" d="M10 0.165917V10H0.165917C0.0567976 10.6504 0 11.3186 0 12C0 12.6814 0.0567976 13.3496 0.165917 14H10V23.8341C10.6504 23.9432 11.3186 24 12 24C12.6814 24 13.3496 23.9432 14 23.8341V14H23.8341C23.9432 13.3496 24 12.6814 24 12C24 11.3186 23.9432 10.6504 23.8341 10H14V0.165917C13.3496 0.0567976 12.6814 0 12 0C11.3186 0 10.6504 0.0567976 10 0.165917V0.165917Z" fill="#E94B35"/>
</svg>
